<?xml version="1.0" encoding="UTF-8" standalone="no"?>
<!-- Created with Inkscape (http://www.inkscape.org/) -->

<svg
   xmlns:dc="http://purl.org/dc/elements/1.1/"
   xmlns:cc="http://creativecommons.org/ns#"
   xmlns:rdf="http://www.w3.org/1999/02/22-rdf-syntax-ns#"
   xmlns:svg="http://www.w3.org/2000/svg"
   xmlns="http://www.w3.org/2000/svg"
   xmlns:sodipodi="http://sodipodi.sourceforge.net/DTD/sodipodi-0.dtd"
   xmlns:inkscape="http://www.inkscape.org/namespaces/inkscape"
   width="592.841"
   height="153.133"
   id="svg3633"
   version="1.1"
   inkscape:version="0.48.5 r10040"
   sodipodi:docname="New document 3">
  <defs
     id="defs3635" />
  <sodipodi:namedview
     id="base"
     pagecolor="#ffffff"
     bordercolor="#666666"
     borderopacity="1.0"
     inkscape:pageopacity="0.0"
     inkscape:pageshadow="2"
     inkscape:zoom="0.35"
     inkscape:cx="296.4205"
     inkscape:cy="76.566497"
     inkscape:document-units="px"
     inkscape:current-layer="layer1"
     showgrid="false"
     fit-margin-top="0"
     fit-margin-left="0"
     fit-margin-right="0"
     fit-margin-bottom="0"
     inkscape:window-width="499"
     inkscape:window-height="442"
     inkscape:window-x="120"
     inkscape:window-y="120"
     inkscape:window-maximized="0" />
  <metadata
     id="metadata3638">
    <rdf:RDF>
      <cc:Work
         rdf:about="">
        <dc:format>image/svg+xml</dc:format>
        <dc:type
           rdf:resource="http://purl.org/dc/dcmitype/StillImage" />
        <dc:title></dc:title>
      </cc:Work>
    </rdf:RDF>
  </metadata>
  <g
     inkscape:label="Layer 1"
     inkscape:groupmode="layer"
     id="layer1"
     transform="translate(-78.5795,-455.79568)">
    <g
       transform="translate(76.1405,-232.96132)"
       id="g3218">
      <g
         id="g3220">
        <g
           id="g3222">
          <path
             style="fill:#700f11"
             inkscape:connector-curvature="0"
             id="path3224"
             d="m 558.444,790.144 c -2.749,-8.619 -16.333,-31.668 -50.47,-41.516 -31.801,-9.171 -90.565,-6.389 -164.847,4.416 -33.792,4.915 -111.244,19.273 -162.863,17.015 C 83.218,765.821 78.981,724.788 52.975,717.33 c -9.628,-2.764 -19.488,1.796 -13.618,9.916 8.128,11.236 12.24,6.004 7.646,3.633 -12.089,-6.235 10.967,-12.298 23.616,2.289 23.728,27.361 73.474,54.612 154.96,48.836 120.457,-9.272 146.236,-12.137 162.443,-13.293 48.502,-3.464 91.664,-2.312 130.164,4.866 32.677,6.092 37.487,16.638 37.487,16.638 1.888,3.512 3.686,2.801 2.771,-0.071 z" />
        </g>
      </g>
      <g
         id="g3226">
        <g
           id="g3228">
          <path
             style="fill:none;stroke:#700f11;stroke-width:0.5;stroke-miterlimit:10"
             inkscape:connector-curvature="0"
             id="path3230"
             d="m 558.444,790.144 c -2.749,-8.619 -16.333,-31.668 -50.47,-41.516 -31.801,-9.171 -90.565,-6.389 -164.847,4.416 -33.792,4.915 -111.244,19.273 -162.863,17.015 C 83.218,765.821 78.981,724.788 52.975,717.33 c -9.628,-2.764 -19.488,1.796 -13.618,9.916 8.128,11.236 12.24,6.004 7.646,3.633 -12.089,-6.235 10.967,-12.298 23.616,2.289 23.728,27.361 73.474,54.612 154.96,48.836 120.457,-9.272 146.236,-12.137 162.443,-13.293 48.502,-3.464 91.664,-2.312 130.164,4.866 32.677,6.092 37.487,16.638 37.487,16.638 1.888,3.512 3.686,2.801 2.771,-0.071 z"
             stroke-miterlimit="10" />
        </g>
      </g>
    </g>
    <polygon
       transform="translate(76.1405,-232.96132)"
       style="fill:#c93937"
       id="polygon3232"
       points="595.28,841.89 2.439,841.89 2.439,688.757 595.28,824.578 " />
  </g>
</svg>
